<svg width="366" height="276" viewBox="0 0 366 276" fill="none" xmlns="http://www.w3.org/2000/svg">
<path d="M332.529 272.45H33.5892C17.0892 272.42 3.71922 259.5 3.69922 243.57V65.16H362.339V243.57C362.319 259.48 348.999 272.38 332.529 272.45ZM83.4192 195.47C66.1292 195.46 50.8092 206.22 45.4992 222.11C44.6392 224.76 45.1492 227.64 46.8792 229.85C48.8392 232.4 51.9292 233.9 55.2092 233.9H171.429C174.739 233.9 177.849 232.38 179.799 229.8C181.529 227.57 182.039 224.67 181.159 222.02C175.849 206.13 160.529 195.36 143.239 195.38H138.129C122.249 201.82 104.349 201.82 88.4692 195.38L83.4292 195.47H83.4192ZM224.009 179.48C218.999 180.06 215.209 184.22 215.249 189.06C215.289 193.84 219.059 197.91 224.009 198.49H320.859C325.059 197.27 328.039 193.68 328.299 189.59C328.579 185.08 325.519 180.84 320.859 179.47C288.579 179.47 256.289 179.48 224.009 179.49V179.48ZM113.329 99.23C91.3192 99.23 73.4792 116.46 73.4792 137.72C73.4792 158.98 91.3192 176.21 113.329 176.21C135.339 176.21 153.179 158.98 153.179 137.72C153.149 116.47 135.319 99.26 113.329 99.23ZM224.009 143.94C219.019 144.46 215.189 148.53 215.129 153.32C215.059 158.2 218.929 162.42 224.009 162.95H320.879C325.219 161.72 328.229 157.87 328.259 153.52C328.289 149.12 325.269 145.19 320.879 143.95H224.009V143.94ZM224.009 108.42C218.599 108.96 214.619 113.52 214.919 118.49C215.199 123.07 219.039 126.95 224.009 127.43H320.859C325.069 126.13 327.969 122.4 328.089 118.2C328.209 113.81 325.259 109.81 320.859 108.44C288.579 108.44 256.289 108.43 224.009 108.42ZM362.349 38.08H3.69922V31.86C3.71922 15.93 17.0892 3.02 33.5892 3H332.529C348.999 3.06 362.319 15.96 362.339 31.86V38.08H362.349Z" fill="white" stroke="white" stroke-width="6"/>
</svg>
