<?xml version="1.0" encoding="UTF-8"?>
<svg xmlns="http://www.w3.org/2000/svg" viewBox="0 0 1123.04 1137">
  <defs>
    <style>
      .cls-1 {
        fill: none;
        stroke-width: 0px;
      }

      .cls-2 {
        fill: #60a5fa;
        stroke: #60a5fa;
        stroke-width: 6px;
      }
    </style>
  </defs>

  <g id="guides_background" data-name="guides / background">
    <g id="back">
      <rect class="cls-1" x="157.04" y="581" width="500" height="500"/>
    </g>
  </g>
  <g id="icons">
    <g id="documents">
      <path id="documents-2" data-name="documents" class="cls-2" d="m556.54,954.73h-298.94c-16.5-.03-29.87-12.95-29.89-28.88v-178.41h358.64v178.41c-.02,15.91-13.34,28.81-29.81,28.88Zm-249.11-76.98c-17.29-.01-32.61,10.75-37.92,26.64-.86,2.65-.35,5.53,1.38,7.74,1.96,2.55,5.05,4.05,8.33,4.05h116.22c3.31,0,6.42-1.52,8.37-4.1,1.73-2.23,2.24-5.13,1.36-7.78-5.31-15.89-20.63-26.66-37.92-26.64h-5.11c-15.88,6.44-33.78,6.44-49.66,0l-5.04.09Zm140.59-15.99c-5.01.58-8.8,4.74-8.76,9.58.04,4.78,3.81,8.85,8.76,9.43h96.85c4.2-1.22,7.18-4.81,7.44-8.9.28-4.51-2.78-8.75-7.44-10.12-32.28,0-64.57.01-96.85.02Zm-110.68-80.25c-22.01,0-39.85,17.23-39.85,38.49s17.84,38.49,39.85,38.49,39.85-17.23,39.85-38.49h0c-.03-21.25-17.86-38.46-39.85-38.49Zm110.68,44.71c-4.99.52-8.82,4.59-8.88,9.38-.07,4.88,3.8,9.1,8.88,9.63h96.87c4.34-1.23,7.35-5.08,7.38-9.43.03-4.4-2.99-8.33-7.38-9.57h-96.87Zm0-35.52c-5.41.54-9.39,5.1-9.09,10.07.28,4.58,4.12,8.46,9.09,8.94h96.85c4.21-1.3,7.11-5.03,7.23-9.23.12-4.39-2.83-8.39-7.23-9.76-32.28,0-64.57-.01-96.85-.02Zm138.34-70.34H227.72v-6.22c.02-15.93,13.39-28.84,29.89-28.86h298.94c16.47.06,29.79,12.96,29.81,28.86v6.22Z"/>
    </g>
  </g>
</svg>