<?xml version="1.0" encoding="UTF-8"?>
<svg id="icons" xmlns="http://www.w3.org/2000/svg" viewBox="0 0 1107.88 794.73">
  <defs>
    <style>
      .cls-1 {
        fill: #fff;
        stroke-width: 0px;
      }
    </style>
  </defs>
  <g id="fly_logo_day" data-name="fly logo day">
    <path id="Path_277" data-name="Path 277" class="cls-1" d="m1104.91,249.49c2.49-17.55,5.38-48.62-.42-50.12-6.33-1.62-15.31,34.2-45.2,81.85-7.64,12.19-26.17,40.35-55.89,70.77-13.81,14.16-33.17,33.72-63.37,52.84-22.7,14.39-42.22,22.66-52.89,27.11-27.67,11.59-53.54,18.57-55.18,19.01-13.26,3.53-25.66,6.1-45.22,13-8.68,3.07-15.68,5.89-20.28,7.81,8.31-14.07,16.31-25.34,22.68-33.7,6.97-9.15,13.03-17.09,22.77-26.61,11.27-11.02,21.39-18.18,28.38-23.07,5.5-3.83,12.86-8.98,23.1-14.48,20.79-11.2,34.23-13.63,33.77-16.68-.46-3.03-14-3.35-18.71-3.46-8.06-.18-17.46-.35-28.68,1.34-1.11.16-11.16,1.78-21.64,5.2-5.31,1.73-29.15,9.93-60.14,35.96-21.27,17.88-34.44,34.5-44.64,47.55-20.39,26.07-32.43,48.59-36.88,57.25-14.04,27.32-20.92,49.61-25.17,63.65-4.16,13.67-8.13,27.07-10.58,45.43-1.92,14.37-2.29,27.46-2.54,35.78-.28,9.86-.21,18.18-.05,24.32-8.38-7.25-17.65-13.37-27.55-18.2-28.34-12.52-59.36-17.25-90-13.77-23.26,2.66-46.03,8.61-67.69,17.71-10.58,4-21.43,8.73-30.3,12.77,3.51-6.77,8.36-16.42,13.72-28.15,5.17-11.29,11.04-25.15,21.69-53.81,12.06-32.47,10.44-30.76,15.89-44.44,7.51-18.8,20.49-50.76,46.77-84.25,15.96-20.3,31.5-34.44,38.8-40.79,29.98-26.01,57.6-44.3,57.6-44.3,14.3-9.47,24.46-15.2,23.28-18.66-1.55-4.53-21.13-1.71-28.96-.58-23.58,3.39-41.2,10.44-48.66,13.6-14.55,6.17-35.29,15.1-57.51,33.42-22.89,18.87-35.36,37.58-48.36,57.6-13.28,20.42-24.55,42.13-33.67,64.83-5.24,12.7-10.6,28.66-21.29,60.56-10.51,31.39-11.99,37.85-17.92,51.69-11.48,26.68-23.58,44.69-26.49,48.99-9.58,14.11-23.37,34.09-46.84,51.41-13.86,10.23-24.94,14.99-28.57,16.47-4.25,1.76-13.6,5.52-26.38,7.71-15.68,2.68-27.25,1.41-27.58,3.81-.21,1.5,4.16,3.33,6.24,4.13,25.24,9.93,56.31,6,61.13,5.36,6.37-.85,18.25-2.68,34.27-6.74,8.27-2.1,30.58-8.04,60.56-21.18,12.24-5.36,25.54-12.26,52.03-26.12s31.59-17.28,44.23-22.47c15.61-6.67,31.9-11.55,48.57-14.5,9.82-1.73,21.55-3.93,37.25-3.76,13.14.16,28.04.32,45.64,7.39,10.3,4.13,22.03,8.87,32.5,20.16,4.34,4.69,7.6,9.89,9.65,9.08,2.56-1.02.18-10.05-.3-22.93,0,0-.53-14,2.59-30.51,2.96-15.61,8.41-26.33,14.78-39.08,2.31-4.6,9.98-19.56,23.53-36.93,6.14-7.88,16.17-20.58,31.71-33.23,3.7-3,22.29-17.76,47.76-27.74,4.87-1.89,10.35-3.79,21.39-7.44,24.09-7.94,33.28-9.68,54.21-16.33,0,0,16.28-5.17,32.24-11.16,26.49-9.93,51.32-21.89,67.23-31.02,58.09-33.33,93.14-83.93,93.14-83.93,35.24-50.83,42.73-99.36,46.45-125.55l.02.12Z"/>
    <path id="Path_266" data-name="Path 266" class="cls-1" d="m208.06,731.47c12.29-11.46,21.18-21.57,26.28-27.62,25.08-29.84,38.11-56.63,52.91-87.6,13.16-27.55,21.94-50.65,27.85-66.24,10.49-27.65,12.47-36.51,23.42-63.12,7.67-18.59,14.09-33.14,23.79-51.71,16.95-32.52,40.23-59.52,40.23-59.52,10.97-12.84,30.6-35.45,63-55.91,8.18-5.17,35.08-21.53,74.76-32.15,52.03-13.95,87.65-7.78,88.23-13.46.62-6-38.78-16.95-77-20.19-15.98-1.36-41.5-3.33-73.93,3.26-9.88,2.01-52.31,11.22-96.77,43.7-35.5,25.91-55.27,54.07-67.23,71.43-19.95,28.94-30.09,53.58-45.24,90.44-7.85,19.15-14.92,39.33-29.03,79.73-15.54,44.53-16.42,49.73-24.44,68.06-9.33,21.36-18.78,42.98-37.28,68.25,0,0-27.46,37.53-64.83,63.95-12.45,8.8-24.97,15.4-24.97,15.4-7.25,3.9-14.76,7.32-22.47,10.23-8.68,3.3-17.65,5.87-26.74,7.69-23.28,4.78-39.17,3.49-38.59,6.26.83,4,34.69,12.49,67.76,12.38,8.94,0,17.85-.72,26.7-2.08,11.92-1.89,23.63-4.99,34.92-9.19,37.25-13.88,63.28-37.6,78.71-51.97l-.05-.02Z"/>
    <path id="Path_265" data-name="Path 265" class="cls-1" d="m312.75,270.21c-3.37-1.5,5.61-28.62,21.27-52.27,5.77-8.71,18.18-25.66,41.27-43.1,45.29-34.23,93.75-41.78,119.59-45.52,42.93-6.19,79.38-2.19,94.76-.42,16.44,1.92,22.5,3.7,63.05,9.08,23.97,3.16,37.62,4.97,56.4,6.63,24.9,2.17,45.18,3.95,70.37,3.05,14.5-.51,41.69-2.31,69.84-8.91,72.54-16.98,124.42-58.94,149.43-80.58,38.06-32.93,60.86-64,65.48-57.23,5.13,7.46-18.13,52.22-20.72,57.18-12.45,24.16-28.22,46.28-46.86,65.66-26.86,28.11-58.73,50.58-93.86,66.12-60.74,26.88-114.65,26.81-145.36,26.65-35.89-.21-71.07-5.61-74.83-6.19-13.86-2.17-15.52-3.07-53.63-10.37-37.48-7.18-56.21-10.79-68.18-12.29-25.96-4.43-52.33-5.59-78.55-3.44-41.78,4.64-81.97,19.03-117.53,42.08-10.88,6.72-21.13,14.43-30.69,23.05-14.67,13.44-19.15,21.76-21.25,20.81h0Z"/>
  </g>
</svg>