<?xml version="1.0" encoding="UTF-8"?>
<svg id="icons" xmlns="http://www.w3.org/2000/svg" viewBox="0 0 1123.04 1137">
  <defs>
    <style>
      .cls-1 {
        fill: #fff;
        stroke-width: 0px;
      }
    </style>
  </defs>
  <g id="fly_logo_day" data-name="fly logo day">
    <path id="Path_277" data-name="Path 277" class="cls-1" d="m644.78,734.94c1.08-7.6,2.33-21.05-.18-21.7-2.74-.7-6.63,14.81-19.57,35.44-3.31,5.28-11.33,17.47-24.2,30.64-5.98,6.13-14.36,14.6-27.44,22.88-9.83,6.23-18.28,9.81-22.9,11.74-11.98,5.02-23.18,8.04-23.89,8.23-5.74,1.53-11.11,2.64-19.58,5.63-3.76,1.33-6.79,2.55-8.78,3.38,3.6-6.09,7.06-10.97,9.82-14.59,3.02-3.96,5.64-7.4,9.86-11.52,4.88-4.77,9.26-7.87,12.29-9.99,2.38-1.66,5.57-3.89,10-6.27,9-4.85,14.82-5.9,14.62-7.22-.2-1.31-6.06-1.45-8.1-1.5-3.49-.08-7.56-.15-12.42.58-.48.07-4.83.77-9.37,2.25-2.3.75-12.62,4.3-26.04,15.57-9.21,7.74-14.91,14.94-19.33,20.59-8.83,11.29-14.04,21.04-15.97,24.79-6.08,11.83-9.06,21.48-10.9,27.56-1.8,5.92-3.52,11.72-4.58,19.67-.83,6.22-.99,11.89-1.1,15.49-.12,4.27-.09,7.87-.02,10.53-3.63-3.14-7.64-5.79-11.93-7.88-12.27-5.42-25.7-7.47-38.97-5.96-10.07,1.15-19.93,3.73-29.31,7.67-4.58,1.73-9.28,3.78-13.12,5.53,1.52-2.93,3.62-7.11,5.94-12.19,2.24-4.89,4.78-10.89,9.39-23.3,5.22-14.06,4.52-13.32,6.88-19.24,3.25-8.14,8.87-21.98,20.25-36.48,6.91-8.79,13.64-14.91,16.8-17.66,12.98-11.26,24.94-19.18,24.94-19.18,6.19-4.1,10.59-6.58,10.08-8.08-.67-1.96-9.15-.74-12.54-.25-10.21,1.47-17.84,4.52-21.07,5.89-6.3,2.67-15.28,6.54-24.9,14.47-9.91,8.17-15.31,16.27-20.94,24.94-5.75,8.84-10.63,18.24-14.58,28.07-2.27,5.5-4.59,12.41-9.22,26.22-4.55,13.59-5.19,16.39-7.76,22.38-4.97,11.55-10.21,19.35-11.47,21.21-4.15,6.11-10.12,14.76-20.28,22.26-6,4.43-10.8,6.49-12.37,7.13-1.84.76-5.89,2.39-11.42,3.34-6.79,1.16-11.8.61-11.94,1.65-.09.65,1.8,1.44,2.7,1.79,10.93,4.3,24.38,2.6,26.47,2.32,2.76-.37,7.9-1.16,14.84-2.92,3.58-.91,13.24-3.48,26.22-9.17,5.3-2.32,11.06-5.31,22.53-11.31,11.47-6,13.68-7.48,19.15-9.73,6.76-2.89,13.81-5,21.03-6.28,4.25-.75,9.33-1.7,16.13-1.63,5.69.07,12.14.14,19.76,3.2,4.46,1.79,9.54,3.84,14.07,8.73,1.88,2.03,3.29,4.28,4.18,3.93,1.11-.44.08-4.35-.13-9.93,0,0-.23-6.06,1.12-13.21,1.28-6.76,3.64-11.4,6.4-16.92,1-1.99,4.32-8.47,10.19-15.99,2.66-3.41,7-8.91,13.73-14.39,1.6-1.3,9.65-7.69,20.68-12.01,2.11-.82,4.48-1.64,9.26-3.22,10.43-3.44,14.41-4.19,23.47-7.07,0,0,7.05-2.24,13.96-4.83,11.47-4.3,22.22-9.48,29.11-13.43,25.15-14.43,40.33-36.34,40.33-36.34,15.26-22.01,18.5-43.02,20.11-54.36Z"/>
    <path id="Path_266" data-name="Path 266" class="cls-1" d="m256.46,943.63c5.32-4.96,9.17-9.34,11.38-11.96,10.86-12.92,16.5-24.52,22.91-37.93,5.7-11.93,9.5-21.93,12.06-28.68,4.54-11.97,5.4-15.81,10.14-27.33,3.32-8.05,6.1-14.35,10.3-22.39,7.34-14.08,17.42-25.77,17.42-25.77,4.75-5.56,13.25-15.35,27.28-24.21,3.54-2.24,15.19-9.32,32.37-13.92,22.53-6.04,37.95-3.37,38.2-5.83.27-2.6-16.79-7.34-33.34-8.74-6.92-.59-17.97-1.44-32.01,1.41-4.28.87-22.65,4.86-41.9,18.92-15.37,11.22-23.93,23.41-29.11,30.93-8.64,12.53-13.03,23.2-19.59,39.16-3.4,8.29-6.46,17.03-12.57,34.52-6.73,19.28-7.11,21.53-10.58,29.47-4.04,9.25-8.13,18.61-16.14,29.55,0,0-11.89,16.25-28.07,27.69-5.39,3.81-10.81,6.67-10.81,6.67-3.14,1.69-6.39,3.17-9.73,4.43-3.76,1.43-7.64,2.54-11.58,3.33-10.08,2.07-16.96,1.51-16.71,2.71.36,1.73,15.02,5.41,29.34,5.36,3.87,0,7.73-.31,11.56-.9,5.16-.82,10.23-2.16,15.12-3.98,16.13-6.01,27.4-16.28,34.08-22.5Z"/>
    <path id="Path_265" data-name="Path 265" class="cls-1" d="m301.79,743.91c-1.46-.65,2.43-12.39,9.21-22.63,2.5-3.77,7.87-11.11,17.87-18.66,19.61-14.82,40.59-18.09,51.78-19.71,18.59-2.68,34.37-.95,41.03-.18,7.12.83,9.74,1.6,27.3,3.93,10.38,1.37,16.29,2.15,24.42,2.87,10.78.94,19.56,1.71,30.47,1.32,6.28-.22,18.05-1,30.24-3.86,31.41-7.35,53.87-25.52,64.7-34.89,16.48-14.26,26.35-27.71,28.35-24.78,2.22,3.23-7.85,22.61-8.97,24.76-5.39,10.46-12.22,20.04-20.29,28.43-11.63,12.17-25.43,21.9-40.64,28.63-26.3,11.64-49.64,11.61-62.94,11.54-15.54-.09-30.77-2.43-32.4-2.68-6-.94-6.72-1.33-23.22-4.49-16.23-3.11-24.34-4.67-29.52-5.32-11.24-1.92-22.66-2.42-34.01-1.49-18.09,2.01-35.49,8.24-50.89,18.22-4.71,2.91-9.15,6.25-13.29,9.98-6.35,5.82-8.29,9.42-9.2,9.01Z"/>
  </g>
</svg>