<svg width="294" height="345" viewBox="0 0 294 345" fill="none" xmlns="http://www.w3.org/2000/svg">
<path d="M289.44 271.76C275.31 253.15 247.52 242.23 247.52 158.87C247.52 75.51 209.74 38.9 174.52 30.65C171.21 29.82 168.84 28.73 168.84 25.23V22.57C168.89 10.3 159.1 0.26 146.84 0H146.34C134.08 0.26 124.29 10.3 124.34 22.57V25.23C124.34 28.63 121.95 29.82 118.66 30.65C83.23 38.99 45.6 73.35 45.6 158.87C45.6 244.39 17.81 253.07 3.68 271.76C-2.38 279.78 -0.790013 291.19 7.22999 297.25C10.41 299.65 14.28 300.94 18.27 300.93H73.73C75.51 305.77 78.59 312.07 83.84 318.42C100.73 338.81 126.64 343.58 145.4 343.98C146.24 344 147.09 344.01 147.95 344.01C166.56 344.01 191.26 339.54 208.27 319.46C213.96 312.74 217.32 305.99 219.25 300.94H275.09C285.15 300.83 293.22 292.59 293.11 282.53C293.07 278.65 291.79 274.88 289.45 271.78L289.44 271.76ZM191.69 306.64C181.64 317.99 166.23 323.51 145.83 323.07C116.46 322.43 102.99 310.43 96.9 300.92H195.94C194.78 302.78 193.38 304.72 191.68 306.63L191.69 306.64Z" fill="white"/>
</svg>
