<?xml version="1.0" encoding="UTF-8"?>
<svg id="icons" xmlns="http://www.w3.org/2000/svg" width="500" height="500" viewBox="0 0 1000 1000">
  <defs>
    <style>
      .cls-1 {
        fill: #60a5fa;
        stroke: #60a5fa;
        stroke-width: 6px;
      }
    </style>
  </defs>
  <g id="search">
    <path id="search-2" data-name="search" class="cls-1" d="m312.77,109.31c-53.5-53.5-140.23-53.5-193.72,0-53.5,53.5-53.5,140.23,0,193.72,48.41,48.41,124.03,53.01,177.62,13.81l90.23,90.23c8.26,8.26,21.65,8.26,29.91,0,8.26-8.26,8.26-21.65,0-29.91l-90.23-90.23c39.2-53.58,34.6-129.21-13.81-177.62Zm-29.73,163.99c-37.07,37.07-97.18,37.07-134.26,0-37.07-37.07-37.07-97.18,0-134.26,37.07-37.07,97.18-37.07,134.26,0,37.07,37.07,37.07,97.18,0,134.26Z"/>
  </g>
</svg>