<svg width="351" height="351" viewBox="0 0 351 351" fill="none" xmlns="http://www.w3.org/2000/svg">
<path d="M236.845 43.125C183.345 -10.375 96.615 -10.375 43.125 43.125C-10.375 96.625 -10.375 183.355 43.125 236.845C91.535 285.255 167.155 289.855 220.745 250.655L310.975 340.885C319.235 349.145 332.625 349.145 340.885 340.885C349.145 332.625 349.145 319.235 340.885 310.975L250.655 220.745C289.855 167.165 285.255 91.535 236.845 43.125ZM207.115 207.115C170.045 244.185 109.935 244.185 72.855 207.115C35.785 170.045 35.785 109.935 72.855 72.855C109.925 35.785 170.035 35.785 207.115 72.855C244.185 109.925 244.185 170.035 207.115 207.115Z" fill="white" stroke="white" stroke-width="6"/>
</svg>
