<?xml version="1.0" encoding="UTF-8"?>
<svg id="icons" xmlns="http://www.w3.org/2000/svg" width="500" height="500" viewBox="0 0 1000 1000">
  <defs>
    <style>
      .cls-1 {
        fill: #60a5fa;
        stroke: #60a5fa;
        stroke-width: 6px;
      }
    </style>
  </defs>
  <g id="settings">
    <path id="gear" class="cls-1" d="m251.31,419c-18.07-.02-32.71-14.66-32.73-32.73v-1.47c-.21-11.09-7.21-20.91-17.63-24.72-10.1-4.46-21.89-2.33-29.79,5.39l-.98.98c-12.76,12.79-33.47,12.81-46.26.04-.01-.01-.03-.03-.04-.04-12.78-12.79-12.78-33.51,0-46.3l.98-.98c10.45-10.8,10.17-28.02-.63-38.47-5.01-4.85-11.69-7.59-18.67-7.66h-2.84c-18.08,0-32.74-14.66-32.74-32.74s14.66-32.74,32.74-32.74h1.47c11.09-.2,20.91-7.21,24.72-17.63,4.5-10.09,2.36-21.91-5.39-29.79l-.98-.98c-13.07-12.5-13.53-33.23-1.03-46.3,12.5-13.07,33.23-13.53,46.3-1.03.35.33.68.67,1.01,1.01l.98.98c7.89,7.71,19.67,9.85,29.77,5.41h1.31c9.9-4.24,16.34-13.95,16.39-24.72v-2.8c.01-18.08,14.67-32.72,32.75-32.71,18.06.01,32.7,14.65,32.71,32.71v1.49c.11,15.01,12.36,27.1,27.38,27,7.02-.05,13.74-2.81,18.77-7.7l.98-.98c13.07-12.51,33.8-12.05,46.3,1.01,12.12,12.66,12.12,32.63,0,45.29l-.98.98c-7.75,7.88-9.89,19.7-5.39,29.79v1.31c4.23,9.89,13.94,16.32,24.7,16.35h2.78c18.08,0,32.73,14.65,32.73,32.73s-14.65,32.73-32.73,32.73h-1.47c-15.04.15-27.11,12.45-26.96,27.49.07,6.97,2.8,13.65,7.65,18.66l.98.98c6.16,6.13,9.62,14.46,9.6,23.15,0,18.09-14.67,32.74-32.76,32.74-8.68,0-17-3.45-23.14-9.59l-.98-.98c-10.81-10.45-28.05-10.16-38.5.65-4.84,5.01-7.58,11.68-7.65,18.64v2.78c0,18.09-14.66,32.76-32.75,32.77Zm-1.31-229.16c-27.12.03-49.08,22.04-49.04,49.16.03,27.12,22.04,49.08,49.16,49.04,27.07-.03,49.01-21.97,49.04-49.04-.02-27.13-22.02-49.1-49.14-49.1l-.02-.06Z"/>
  </g>
</svg>