<svg width="367" height="367" viewBox="0 0 367 367" fill="none" xmlns="http://www.w3.org/2000/svg">
<path d="M184.33 363.72C166.26 363.7 151.62 349.06 151.6 330.99V329.52C151.39 318.43 144.39 308.61 133.97 304.8C123.87 300.34 112.08 302.47 104.18 310.19L103.2 311.17C90.44 323.96 69.73 323.98 56.94 311.21C56.93 311.2 56.91 311.18 56.9 311.17C44.12 298.38 44.12 277.66 56.9 264.87L57.88 263.89C68.33 253.09 68.05 235.87 57.25 225.42C52.24 220.57 45.56 217.83 38.58 217.76H35.74C17.66 217.76 3 203.1 3 185.02C3 166.94 17.66 152.28 35.74 152.28H37.21C48.3 152.08 58.12 145.07 61.93 134.65C66.43 124.56 64.29 112.74 56.54 104.86L55.56 103.88C42.49 91.3802 42.03 70.6502 54.53 57.5802C67.03 44.5102 87.76 44.0502 100.83 56.5502C101.18 56.8802 101.51 57.2202 101.84 57.5602L102.82 58.5402C110.71 66.2502 122.49 68.3902 132.59 63.9502H133.9C143.8 59.7102 150.24 50.0002 150.29 39.2302V36.4302C150.3 18.3502 164.96 3.71022 183.04 3.72022C201.1 3.73022 215.74 18.3702 215.75 36.4302V37.9202C215.86 52.9302 228.11 65.0202 243.13 64.9202C250.15 64.8702 256.87 62.1102 261.9 57.2202L262.88 56.2402C275.95 43.7302 296.68 44.1902 309.18 57.2502C321.3 69.9102 321.3 89.8802 309.18 102.54L308.2 103.52C300.45 111.4 298.31 123.22 302.81 133.31V134.62C307.04 144.51 316.75 150.94 327.51 150.97H330.29C348.37 150.97 363.02 165.62 363.02 183.7C363.02 201.78 348.37 216.43 330.29 216.43H328.82C313.78 216.58 301.71 228.88 301.86 243.92C301.93 250.89 304.66 257.57 309.51 262.58L310.49 263.56C316.65 269.69 320.11 278.02 320.09 286.71C320.09 304.8 305.42 319.45 287.33 319.45C278.65 319.45 270.33 316 264.19 309.86L263.21 308.88C252.4 298.43 235.16 298.72 224.71 309.53C219.87 314.54 217.13 321.21 217.06 328.17V330.95C217.06 349.04 202.4 363.71 184.31 363.72H184.33ZM183.02 134.56C155.9 134.59 133.94 156.6 133.98 183.72C134.01 210.84 156.02 232.8 183.14 232.76C210.21 232.73 232.15 210.79 232.18 183.72C232.16 156.59 210.16 134.62 183.04 134.62L183.02 134.56Z" fill="white" stroke="white" stroke-width="6"/>
</svg>
