<svg width="371" height="286" viewBox="0 0 371 286" fill="none" xmlns="http://www.w3.org/2000/svg">
<path d="M97.6852 0.150793H351.155C362.125 2.53079 369.955 12.2308 369.975 23.4508C369.875 35.0008 362.335 45.1708 351.315 48.6208H97.6752V82.1408C98.1152 85.0308 97.4852 87.9808 95.8952 90.4308C94.5952 91.9808 92.2752 92.1808 90.7252 90.8808C90.5652 90.7408 90.4152 90.5908 90.2752 90.4308L5.39515 14.3608C3.53515 11.2408 2.89515 7.56079 3.57515 3.99079C5.15515 -0.409211 13.0052 0.0107934 13.0052 0.0107934L97.6752 0.130788L97.6852 0.150793ZM370.225 199.321C371.155 203.221 370.055 207.331 367.305 210.251L281.475 284.281C281.475 284.281 277.325 286.891 275.255 285.401C273.185 283.911 273.595 278.291 273.595 278.291V242.551H20.1952C7.83516 241.001 -1.06485 229.911 0.105154 217.511C-1.05485 205.771 7.51516 195.321 19.2552 194.161C19.5652 194.131 19.8852 194.101 20.1952 194.091H361.215C364.975 193.941 368.485 195.991 370.215 199.341L370.225 199.321Z" fill="white"/>
</svg>
