<?xml version="1.0" encoding="UTF-8"?>
<svg xmlns="http://www.w3.org/2000/svg" viewBox="0 0 1123.04 1137">
  <defs>
    <style>
      .cls-1 {
        fill: none;
      }

      .cls-1, .cls-2 {
        stroke-width: 0px;
      }

      .cls-2 {
        fill:#60a5fa;
      }
    </style>
  </defs>
  <g id="guides_background" data-name="guides / background">
    <g id="back">
      <rect class="cls-1" x="157.04" y="581" width="500" height="500"/>
    </g>
  </g>
  <g id="icons">
    <g id="transfer">
      <path id="transfer_day" data-name="transfer day" class="cls-2" d="m317.71,680.29h253.47c10.97,2.38,18.8,12.08,18.82,23.3-.1,11.55-7.64,21.72-18.66,25.17h-253.64v33.52c.44,2.89-.19,5.84-1.78,8.29-1.3,1.55-3.62,1.75-5.17.45-.16-.14-.31-.29-.45-.45l-84.88-76.07c-1.86-3.12-2.5-6.8-1.82-10.37,1.58-4.4,9.43-3.98,9.43-3.98l84.67.12Zm272.54,199.17c.93,3.9-.17,8.01-2.92,10.93l-85.83,74.03s-4.15,2.61-6.22,1.12-1.66-7.11-1.66-7.11v-35.74h-253.39c-12.36-1.55-21.26-12.64-20.09-25.04-1.16-11.74,7.41-22.19,19.15-23.35.31-.03.63-.06.94-.07h341.02c3.76-.15,7.27,1.9,9,5.25Z"/>
    </g>
  </g>
</svg>