<svg width="368" height="367" viewBox="0 0 368 367" fill="none" xmlns="http://www.w3.org/2000/svg">
<path d="M274.94 228.75H261.98C261.52 228.72 260.93 228.71 260.14 228.75C251.45 228.75 242.76 228.75 234.08 228.75C224.62 233.12 206.96 239.78 183.92 239.98C160.88 239.78 143.22 233.11 133.76 228.75C125.07 228.75 116.38 228.75 107.7 228.75C106.91 228.71 106.32 228.72 105.86 228.75H92.9001C43.2501 228.75 3.00008 269 3.00008 318.65V329.9C2.96008 348.53 18.0301 363.65 36.6601 363.69C36.6801 363.69 36.7001 363.69 36.7301 363.69H331.13C331.13 363.69 331.17 363.69 331.2 363.69C349.83 363.65 364.9 348.53 364.86 329.9V318.65C364.86 269 324.61 228.75 274.96 228.75H274.94Z" fill="white" stroke="white" stroke-width="6"/>
<path d="M182.8 206.27C238.67 206.27 283.95 160.98 283.95 105.12C283.95 49.2602 238.66 3.97021 182.8 3.97021C126.94 3.97021 81.6504 49.2602 81.6504 105.12C81.6604 160.98 126.94 206.26 182.8 206.27Z" fill="white" stroke="white" stroke-width="6"/>
</svg>
