<svg width="428" height="403" viewBox="0 0 428 403" fill="none" xmlns="http://www.w3.org/2000/svg">
<path d="M218.35 312.41C218.34 309.26 218.42 295.46 223.51 278.47C227.93 263.74 233.92 253.96 235.32 251.72C243.02 239.4 250.94 232.72 252.55 231.49C253.68 230.63 254.78 229.71 255.93 228.87C258.97 226.66 260.56 225.86 260.4 225.27C260.31 224.96 259.7 224.64 257.14 224.77C248.45 224.77 239.76 224.77 231.08 224.77C221.47 229.2 203.42 236.02 179.85 236.02C162.36 236.02 144.87 232.27 128.62 224.77H89.9001C40.2501 224.77 7.94444e-05 265.02 7.94444e-05 314.67V325.92C-0.0399206 344.55 15.0301 359.67 33.6601 359.71C33.6801 359.71 33.7001 359.71 33.7301 359.71H229.31C224.55 349.69 218.45 333.19 218.36 312.39L218.35 312.41Z" fill="white"/>
<path d="M179.8 202.3C235.67 202.3 280.95 157.01 280.95 101.15C280.95 45.29 235.66 0 179.8 0C123.94 0 78.6504 45.29 78.6504 101.15C78.6604 157.01 123.94 202.29 179.8 202.3Z" fill="white"/>
<path d="M378.41 272.83C379.3 273.81 380.52 275.23 381.88 276.99C384.54 280.44 389.49 286.98 392.5 296.53C392.5 296.53 395.05 304.76 395.05 313.41C395.05 344.76 369.64 370.17 338.29 370.17C306.94 370.17 281.53 344.76 281.53 313.41C281.53 303.98 284.08 296.53 284.08 296.53C286.52 289.58 291.73 280.3 297.97 272.96C298.79 272 299.74 270.93 300.65 269.15C301.21 268.05 305.37 259.55 300.61 252.54C295.38 244.85 284.61 246.6 284.02 246.71C280.2 247.39 277.51 249.26 275.85 250.54C260.85 262.12 254.44 283.53 253.44 287C250.46 297.35 249.45 307.26 249.45 313.42C249.45 362.49 289.23 402.27 338.3 402.27C387.37 402.27 427.15 362.49 427.15 313.42C427.15 288.89 417.21 266.67 401.13 250.6C400.24 249.75 398.93 248.71 397.16 247.95C391.32 245.42 382.07 246.53 377.33 253.59C373.45 259.37 373.86 267.24 378.43 272.84L378.41 272.83Z" fill="white"/>
<path d="M354.85 219.57C354.85 210.419 347.433 203 338.285 203C329.136 203 321.72 210.419 321.72 219.57V284.44C321.72 293.591 329.136 301.01 338.285 301.01C347.433 301.01 354.85 293.591 354.85 284.44V219.57Z" fill="white"/>
</svg>
