<?xml version="1.0" encoding="UTF-8"?>
<svg xmlns="http://www.w3.org/2000/svg" viewBox="0 0 1123.04 1137">
  <defs>
    <style>
      .cls-1 {
        fill: none;
        stroke-width: 0px;
      }

      .cls-2 {
        fill: #60a5fa;
        stroke: #60a5fa;
        stroke-width: 6px;
      }
    </style>
  </defs>
  <g id="guides_background" data-name="guides / background">
    <g id="back">
      <rect class="cls-1" x="157.04" y="581" width="500" height="500"/>
    </g>
  </g>
  <g id="icons">
    <g id="user">
      <g>
        <path class="cls-2" d="m499.13,864.92h-12.96c-.46-.03-1.05-.04-1.84,0-8.69,0-17.38,0-26.06,0-9.46,4.37-27.12,11.03-50.16,11.23-23.04-.2-40.7-6.87-50.16-11.23-8.69,0-17.38,0-26.06,0-.79-.04-1.38-.03-1.84,0h-12.96c-49.65,0-89.9,40.25-89.9,89.9v11.25c-.04,18.63,15.03,33.75,33.66,33.79.02,0,.04,0,.07,0h294.4s.04,0,.07,0c18.63-.04,33.7-15.16,33.66-33.79v-11.25c0-49.65-40.25-89.9-89.9-89.9Z"/>
        <path class="cls-2" d="m406.99,842.44c55.87,0,101.15-45.29,101.15-101.15s-45.29-101.15-101.15-101.15-101.15,45.29-101.15,101.15c.01,55.86,45.29,101.14,101.15,101.15Z"/>
      </g>
    </g>
  </g>
</svg>