<?xml version="1.0" encoding="UTF-8"?>
<svg xmlns="http://www.w3.org/2000/svg" viewBox="0 0 1123.04 1137">
  <defs>
    <style>
      .cls-1 {
        fill: none;
      }

      .cls-1, .cls-2 {
        stroke-width: 0px;
      }

      .cls-2 {
        fill: #60a5fa;
      }
    </style>
  </defs>
  <g id="guides_background" data-name="guides / background">
    <g id="back">
      <rect class="cls-1" x="157.04" y="581" width="500" height="500"/>
    </g>
  </g>
  <g id="icons">
    <g id="logout">
      <g>
        <path class="cls-2" d="m443.44,951.58c-.01-3.15.07-16.95,5.16-33.94,4.42-14.73,10.41-24.51,11.81-26.75,7.7-12.32,15.62-19,17.23-20.23,1.13-.86,2.23-1.78,3.38-2.62,3.04-2.21,4.63-3.01,4.47-3.6-.09-.31-.7-.63-3.26-.5-8.69,0-17.38,0-26.06,0-9.61,4.43-27.66,11.25-51.23,11.25-17.49,0-34.98-3.75-51.23-11.25h-38.72c-49.65,0-89.9,40.25-89.9,89.9v11.25c-.04,18.63,15.03,33.75,33.66,33.79.02,0,.04,0,.07,0h195.58c-4.76-10.02-10.86-26.52-10.95-47.32Z"/>
        <path class="cls-2" d="m404.88,841.47c55.87,0,101.15-45.29,101.15-101.15s-45.29-101.15-101.15-101.15-101.15,45.29-101.15,101.15c.01,55.86,45.29,101.14,101.15,101.15Z"/>
      </g>
      <g>
        <path class="cls-2" d="m603.49,912c.89.98,2.11,2.4,3.47,4.16,2.66,3.45,7.61,9.99,10.62,19.54,0,0,2.55,8.23,2.55,16.88,0,31.35-25.41,56.76-56.76,56.76s-56.76-25.41-56.76-56.76c0-9.43,2.55-16.88,2.55-16.88,2.44-6.95,7.65-16.23,13.89-23.57.82-.96,1.77-2.03,2.68-3.81.56-1.1,4.72-9.6-.04-16.61-5.23-7.69-16-5.94-16.59-5.83-3.82.68-6.51,2.55-8.17,3.83-15,11.58-21.41,32.99-22.41,36.46-2.98,10.35-3.99,20.26-3.99,26.42,0,49.07,39.78,88.85,88.85,88.85s88.85-39.78,88.85-88.85c0-24.53-9.94-46.75-26.02-62.82-.89-.85-2.2-1.89-3.97-2.65-5.84-2.53-15.09-1.42-19.83,5.64-3.88,5.78-3.47,13.65,1.1,19.25Z"/>
        <rect class="cls-2" x="546.81" y="842.17" width="33.13" height="98.01" rx="16.57" ry="16.57"/>
      </g>
    </g>
  </g>
</svg>