<svg width="440" height="300" viewBox="0 0 440 300" fill="none" xmlns="http://www.w3.org/2000/svg">
<path d="M432.886 151.306C432.886 150.786 432.391 150.254 432.391 149.734C429.408 141.353 425.422 133.505 420.433 126.697L376.092 43.4619C376.092 42.942 375.597 42.942 375.597 42.4098C361.151 16.2286 334.252 0 305.36 0C270.984 0 241.597 22.5046 229.639 53.922H209.709C197.751 22.5046 168.364 0 133.988 0C105.096 0 78.1968 16.2286 63.7508 42.4098C63.7508 42.9297 63.2556 42.9296 63.2556 43.4619L62.7605 44.5142L62.2653 45.0341L19.4223 126.709C14.4337 134.038 10.4601 141.886 7.46441 150.266C7.46441 150.786 7.46442 151.318 6.96927 151.318C2.48814 163.363 0 176.447 0 190.064C0 250.794 46.829 300 104.613 300C151.937 300 191.797 267.011 204.745 221.469H235.135C248.083 267.011 287.943 300 335.267 300C393.051 300 439.88 250.782 439.88 190.064C439.88 176.447 437.392 163.363 432.911 151.318L432.886 151.306ZM103.499 267.382C66.6845 267.382 36.9631 237.215 36.9631 200.846C36.9631 164.477 68.0586 132.948 106.037 134.359C140.561 135.634 168.686 163.771 169.973 198.296C171.384 236.274 141.143 267.37 103.487 267.37L103.499 267.382ZM336.827 267.382C300.012 267.382 270.291 237.215 270.291 200.846C270.291 164.477 300.012 134.31 336.827 134.31C373.641 134.31 403.363 164.031 403.363 200.846C403.363 237.66 373.641 267.382 336.827 267.382Z" fill="white"/>
</svg>
