<svg width="306" height="256" viewBox="0 0 306 256" fill="none" xmlns="http://www.w3.org/2000/svg">
<path d="M204.03 228.82C183.84 242 165.14 250.06 151.54 255.01C138.72 251.1 121.33 244.58 102.51 233.38C95.3997 229.14 -11.3803 163.71 0.999714 79.8399C4.90971 53.3099 22.1497 15.4699 57.3197 4.23992C90.6797 -6.41008 127.67 10.8799 147.12 31.1899C149.53 33.7099 151.37 35.9499 152.57 37.4999C153.94 35.8299 155.85 33.6299 158.29 31.1899C176.95 12.5499 213.53 -6.73008 248.09 4.23992C282.3 15.1099 300.74 51.7599 304.41 79.8399C314.46 156.73 220.24 218.24 204.03 228.82Z" fill="white"/>
</svg>
